<?xml version="1.0" encoding="UTF-8" standalone="no"?>
<svg
   xmlns:dc="http://purl.org/dc/elements/1.1/"
   xmlns:cc="http://creativecommons.org/ns#"
   xmlns:rdf="http://www.w3.org/1999/02/22-rdf-syntax-ns#"
   xmlns:svg="http://www.w3.org/2000/svg"
   xmlns="http://www.w3.org/2000/svg"
   xmlns:sodipodi="http://sodipodi.sourceforge.net/DTD/sodipodi-0.dtd"
   xmlns:inkscape="http://www.inkscape.org/namespaces/inkscape"
   version="1.1"
   width="5.45084cm"
   height="8.3058cm"
   viewBox="0 0 21460 32700 "
   id="svg710"
   sodipodi:docname="attiny2313_clock-F.Cu.svg"
   inkscape:version="0.92.1 r15371">
  <metadata
     id="metadata716">
    <rdf:RDF>
      <cc:Work
         rdf:about="">
        <dc:format>image/svg+xml</dc:format>
        <dc:type
           rdf:resource="http://purl.org/dc/dcmitype/StillImage" />
      </cc:Work>
    </rdf:RDF>
  </metadata>
  <defs
     id="defs714" />
  <sodipodi:namedview
     pagecolor="#ffffff"
     bordercolor="#666666"
     borderopacity="1"
     objecttolerance="10"
     gridtolerance="10"
     guidetolerance="10"
     inkscape:pageopacity="0"
     inkscape:pageshadow="2"
     inkscape:window-width="1920"
     inkscape:window-height="984"
     id="namedview712"
     showgrid="false"
     inkscape:zoom="3.0071354"
     inkscape:cx="39.983595"
     inkscape:cy="213.99261"
     inkscape:window-x="0"
     inkscape:window-y="32"
     inkscape:window-maximized="1"
     inkscape:current-layer="svg710" />
  <title
     id="title2">SVG Picture created as attiny2313_clock-F.Cu.svg date 2018/07/18 01:05:10 </title>
  <desc
     id="desc4">Picture generated by PCBNEW </desc>
  <g
     style="fill:#000000; fill-opacity:1;stroke:#000000; stroke-opacity:1; stroke-linecap:round; stroke-linejoin:round; "
     transform="translate(0 0) scale(1 1)"
     id="g6" />
  <g
     style="fill:#000000; fill-opacity:0.0;  stroke:#000000; stroke-width:-0.000393701; stroke-opacity:1;  stroke-linecap:round; stroke-linejoin:round;"
     id="g8" />
  <g
     style="fill:#000000;fill-opacity:0;stroke:#000000;stroke-width:59.05509949;stroke-linecap:round;stroke-linejoin:round;stroke-opacity:1"
     id="g14"
     transform="translate(-3333.3329,-1249.9999)">
    <circle
       cx="8320.6299"
       cy="31113"
       r="502.49399"
       id="circle10" />
    <circle
       cx="19970.6"
       cy="31113"
       r="502.49399"
       id="circle12" />
  </g>
  <g
     style="fill:#000000;fill-opacity:0;stroke:#000000;stroke-width:118.11000061;stroke-linecap:round;stroke-linejoin:round;stroke-opacity:1"
     id="g44"
     transform="translate(-3333.3329,-1249.9999)">
    <path
       d="m 15059,30261 281,197"
       id="path16"
       inkscape:connector-curvature="0" />
    <path
       d="m 15059,30598 h 590 v -225 l -28,-56 -28,-28 -56,-28 h -84 l -57,28 -28,28 -28,56 v 225"
       id="path18"
       inkscape:connector-curvature="0" />
    <path
       d="m 15649,30064 -590,-394"
       id="path20"
       inkscape:connector-curvature="0" />
    <path
       d="m 15649,29670 -590,394"
       id="path22"
       inkscape:connector-curvature="0" />
    <path
       d="m 14645,30612 v -337"
       id="path24"
       inkscape:connector-curvature="0" />
    <path
       d="m 14055,30444 h 590"
       id="path26"
       inkscape:connector-curvature="0" />
    <path
       d="m 14645,30134 -590,-393"
       id="path28"
       inkscape:connector-curvature="0" />
    <path
       d="m 14645,29741 -590,393"
       id="path30"
       inkscape:connector-curvature="0" />
    <path
       d="m 13642,30950 -591,-197 591,-197"
       id="path32"
       inkscape:connector-curvature="0" />
    <path
       d="m 13107,30022 -28,28 -28,84 v 57 l 28,84 56,56 57,28 112,28 h 84 l 113,-28 56,-28 56,-56 29,-84 v -57 l -29,-84 -28,-28"
       id="path34"
       inkscape:connector-curvature="0" />
    <path
       d="m 13107,29431 -28,28 -28,85 v 56 l 28,84 56,57 57,28 112,28 h 84 l 113,-28 56,-28 56,-57 29,-84 v -56 l -29,-85 -28,-28"
       id="path36"
       inkscape:connector-curvature="0" />
    <path
       d="m 12609,30612 29,57 v 84 l -29,84 -56,57 -56,28 -112,28 h -85 l -112,-28 -57,-28 -56,-57 -28,-84 v -56 l 28,-85 28,-28 h 197 v 113"
       id="path38"
       inkscape:connector-curvature="0" />
    <path
       d="m 12047,30331 h 591 l -591,-337 h 591"
       id="path40"
       inkscape:connector-curvature="0" />
    <path
       d="m 12047,29713 h 591 v -141 l -29,-84 -56,-57 -56,-28 -112,-28 h -85 l -112,28 -57,28 -56,57 -28,84 v 141"
       id="path42"
       inkscape:connector-curvature="0" />
  </g>
  <g
     style="fill:#000000;fill-opacity:0;stroke:#000000;stroke-width:59.05509949;stroke-linecap:round;stroke-linejoin:round;stroke-opacity:1"
     id="g58"
     transform="translate(-3333.3329,-1249.9999)">
    <circle
       cx="8320.6299"
       cy="3812.99"
       r="502.49399"
       id="circle46" />
    <circle
       cx="19970.6"
       cy="3812.99"
       r="502.49399"
       id="circle48" />
    <path
       d="M 21420,32662 H 6870"
       id="path50"
       inkscape:connector-curvature="0" />
    <path
       d="M 21420,2262 V 32662"
       id="path52"
       inkscape:connector-curvature="0" />
    <path
       d="M 6870,2262 H 21420"
       id="path54"
       inkscape:connector-curvature="0" />
    <path
       d="M 6870,32662 V 2262"
       id="path56"
       inkscape:connector-curvature="0" />
  </g>
  <g
     style="fill:#000000; fill-opacity:0.0;  stroke:#000000; stroke-width:0; stroke-opacity:1;  stroke-linecap:round; stroke-linejoin:round;"
     id="g60" />
  <g
     style="fill:#000000;fill-opacity:1;stroke:#000000;stroke-width:0;stroke-linecap:round;stroke-linejoin:round;stroke-opacity:1"
     id="g210"
     transform="translate(-3333.3329,-1249.9999)">
    <polyline
       style="fill-rule:evenodd"
       points="8995,26027 8995,25398 7813,25398 7813,26027 8995,26027 "
       id="polyline62" />
    <polyline
       style="fill-rule:evenodd"
       points="10727,26027 10727,25398 9546,25398 9546,26027 10727,26027 "
       id="polyline64" />
    <polyline
       style="fill-rule:evenodd"
       points="16350,12303 16940,12303 16940,10334 16350,10334 16350,12303 "
       id="polyline66" />
    <polyline
       style="fill-rule:evenodd"
       points="15350,12303 15940,12303 15940,10334 15350,10334 15350,12303 "
       id="polyline68" />
    <polyline
       style="fill-rule:evenodd"
       points="14350,12303 14940,12303 14940,10334 14350,10334 14350,12303 "
       id="polyline70" />
    <polyline
       style="fill-rule:evenodd"
       points="13350,12303 13940,12303 13940,10334 13350,10334 13350,12303 "
       id="polyline72" />
    <polyline
       style="fill-rule:evenodd"
       points="12350,12303 12940,12303 12940,10334 12350,10334 12350,12303 "
       id="polyline74" />
    <polyline
       style="fill-rule:evenodd"
       points="11350,12303 11940,12303 11940,10334 11350,10334 11350,12303 "
       id="polyline76" />
    <polyline
       style="fill-rule:evenodd"
       points="11350,6791 11940,6791 11940,4822 11350,4822 11350,6791 "
       id="polyline78" />
    <polyline
       style="fill-rule:evenodd"
       points="12350,6791 12940,6791 12940,4822 12350,4822 12350,6791 "
       id="polyline80" />
    <polyline
       style="fill-rule:evenodd"
       points="13350,6791 13940,6791 13940,4822 13350,4822 13350,6791 "
       id="polyline82" />
    <polyline
       style="fill-rule:evenodd"
       points="14350,6791 14940,6791 14940,4822 14350,4822 14350,6791 "
       id="polyline84" />
    <polyline
       style="fill-rule:evenodd"
       points="15350,6791 15940,6791 15940,4822 15350,4822 15350,6791 "
       id="polyline86" />
    <polyline
       style="fill-rule:evenodd"
       points="16350,6791 16940,6791 16940,4822 16350,4822 16350,6791 "
       id="polyline88" />
    <polyline
       style="fill-rule:evenodd"
       points="12660,13269 11990,13269 11990,13624 12660,13624 12660,13269 "
       id="polyline90" />
    <polyline
       style="fill-rule:evenodd"
       points="12660,14411 11990,14411 11990,14766 12660,14766 12660,14411 "
       id="polyline92" />
    <polyline
       style="fill-rule:evenodd"
       points="10660,13269 9990,13269 9990,13624 10660,13624 10660,13269 "
       id="polyline94" />
    <polyline
       style="fill-rule:evenodd"
       points="10660,14411 9990,14411 9990,14766 10660,14766 10660,14411 "
       id="polyline96" />
    <polyline
       style="fill-rule:evenodd"
       points="14660,13269 13990,13269 13990,13624 14660,13624 14660,13269 "
       id="polyline98" />
    <polyline
       style="fill-rule:evenodd"
       points="14660,14411 13990,14411 13990,14766 14660,14766 14660,14411 "
       id="polyline100" />
    <polyline
       style="fill-rule:evenodd"
       points="16660,13269 15990,13269 15990,13624 16660,13624 16660,13269 "
       id="polyline102" />
    <polyline
       style="fill-rule:evenodd"
       points="16660,14411 15990,14411 15990,14766 16660,14766 16660,14411 "
       id="polyline104" />
    <polyline
       style="fill-rule:evenodd"
       points="17660,13269 16990,13269 16990,13624 17660,13624 17660,13269 "
       id="polyline106" />
    <polyline
       style="fill-rule:evenodd"
       points="17660,14411 16990,14411 16990,14766 17660,14766 17660,14411 "
       id="polyline108" />
    <polyline
       style="fill-rule:evenodd"
       points="11660,13269 10990,13269 10990,13624 11660,13624 11660,13269 "
       id="polyline110" />
    <polyline
       style="fill-rule:evenodd"
       points="11660,14411 10990,14411 10990,14766 11660,14766 11660,14411 "
       id="polyline112" />
    <polyline
       style="fill-rule:evenodd"
       points="13660,13269 12990,13269 12990,13624 13660,13624 13660,13269 "
       id="polyline114" />
    <polyline
       style="fill-rule:evenodd"
       points="13660,14411 12990,14411 12990,14766 13660,14766 13660,14411 "
       id="polyline116" />
    <polyline
       style="fill-rule:evenodd"
       points="15660,13269 14990,13269 14990,13624 15660,13624 15660,13269 "
       id="polyline118" />
    <polyline
       style="fill-rule:evenodd"
       points="15660,14411 14990,14411 14990,14766 15660,14766 15660,14411 "
       id="polyline120" />
    <polyline
       style="fill-rule:evenodd"
       points="18010,19998 18640,19998 18640,18777 18010,18777 18010,19998 "
       id="polyline122" />
    <polyline
       style="fill-rule:evenodd"
       points="9010,16498 9640,16498 9640,15277 9010,15277 9010,16498 "
       id="polyline124" />
    <polyline
       style="fill-rule:evenodd"
       points="17010,19998 17640,19998 17640,18777 17010,18777 17010,19998 "
       id="polyline126" />
    <polyline
       style="fill-rule:evenodd"
       points="10010,16498 10640,16498 10640,15277 10010,15277 10010,16498 "
       id="polyline128" />
    <polyline
       style="fill-rule:evenodd"
       points="16010,19998 16640,19998 16640,18777 16010,18777 16010,19998 "
       id="polyline130" />
    <polyline
       style="fill-rule:evenodd"
       points="11010,16498 11640,16498 11640,15277 11010,15277 11010,16498 "
       id="polyline132" />
    <polyline
       style="fill-rule:evenodd"
       points="15010,19998 15640,19998 15640,18777 15010,18777 15010,19998 "
       id="polyline134" />
    <polyline
       style="fill-rule:evenodd"
       points="12010,16498 12640,16498 12640,15277 12010,15277 12010,16498 "
       id="polyline136" />
    <polyline
       style="fill-rule:evenodd"
       points="14010,19998 14640,19998 14640,18777 14010,18777 14010,19998 "
       id="polyline138" />
    <polyline
       style="fill-rule:evenodd"
       points="13010,16498 13640,16498 13640,15277 13010,15277 13010,16498 "
       id="polyline140" />
    <polyline
       style="fill-rule:evenodd"
       points="13010,19998 13640,19998 13640,18777 13010,18777 13010,19998 "
       id="polyline142" />
    <polyline
       style="fill-rule:evenodd"
       points="14010,16498 14640,16498 14640,15277 14010,15277 14010,16498 "
       id="polyline144" />
    <polyline
       style="fill-rule:evenodd"
       points="12010,19998 12640,19998 12640,18777 12010,18777 12010,19998 "
       id="polyline146" />
    <polyline
       style="fill-rule:evenodd"
       points="15010,16498 15640,16498 15640,15277 15010,15277 15010,16498 "
       id="polyline148" />
    <polyline
       style="fill-rule:evenodd"
       points="11010,19998 11640,19998 11640,18777 11010,18777 11010,19998 "
       id="polyline150" />
    <polyline
       style="fill-rule:evenodd"
       points="16010,16498 16640,16498 16640,15277 16010,15277 16010,16498 "
       id="polyline152" />
    <polyline
       style="fill-rule:evenodd"
       points="10010,19998 10640,19998 10640,18777 10010,18777 10010,19998 "
       id="polyline154" />
    <polyline
       style="fill-rule:evenodd"
       points="17010,16498 17640,16498 17640,15277 17010,15277 17010,16498 "
       id="polyline156" />
    <polyline
       style="fill-rule:evenodd"
       points="9010,19998 9640,19998 9640,18777 9010,18777 9010,19998 "
       id="polyline158" />
    <polyline
       style="fill-rule:evenodd"
       points="18010,16498 18640,16498 18640,15277 18010,15277 18010,16498 "
       id="polyline160" />
    <polyline
       style="fill-rule:evenodd"
       points="16122,8228 16122,8897 16476,8897 16476,8228 16122,8228 "
       id="polyline162" />
    <polyline
       style="fill-rule:evenodd"
       points="17264,8228 17264,8897 17618,8897 17618,8228 17264,8228 "
       id="polyline164" />
    <polyline
       style="fill-rule:evenodd"
       points="16508,24277 16508,23648 16114,23648 16114,24277 16508,24277 "
       id="polyline166" />
    <polyline
       style="fill-rule:evenodd"
       points="15326,24277 15326,23648 14933,23648 14933,24277 15326,24277 "
       id="polyline168" />
    <polyline
       style="fill-rule:evenodd"
       points="12933,23648 12933,24277 13326,24277 13326,23648 12933,23648 "
       id="polyline170" />
    <polyline
       style="fill-rule:evenodd"
       points="14114,23648 14114,24277 14508,24277 14508,23648 14114,23648 "
       id="polyline172" />
    <polyline
       style="fill-rule:evenodd"
       points="20005,16914 19335,16914 19335,17269 20005,17269 20005,16914 "
       id="polyline174" />
    <polyline
       style="fill-rule:evenodd"
       points="20005,18056 19335,18056 19335,18411 20005,18411 20005,18056 "
       id="polyline176" />
    <polyline
       style="fill-rule:evenodd"
       points="17379,22756 17379,21969 15608,21969 15608,22756 17379,22756 "
       id="polyline178" />
    <polyline
       style="fill-rule:evenodd"
       points="14033,22756 14033,21969 12261,21969 12261,22756 14033,22756 "
       id="polyline180" />
    <polyline
       style="fill-rule:evenodd"
       points="8483,23298 8483,23927 8876,23927 8876,23298 8483,23298 "
       id="polyline182" />
    <polyline
       style="fill-rule:evenodd"
       points="9664,23298 9664,23927 10058,23927 10058,23298 9664,23298 "
       id="polyline184" />
    <polyline
       style="fill-rule:evenodd"
       points="19868,21747 19868,21078 19514,21078 19514,21747 19868,21747 "
       id="polyline186" />
    <polyline
       style="fill-rule:evenodd"
       points="18726,21747 18726,21078 18372,21078 18372,21747 18726,21747 "
       id="polyline188" />
    <polyline
       style="fill-rule:evenodd"
       points="19868,22947 19868,22278 19514,22278 19514,22947 19868,22947 "
       id="polyline190" />
    <polyline
       style="fill-rule:evenodd"
       points="18726,22947 18726,22278 18372,22278 18372,22947 18726,22947 "
       id="polyline192" />
    <polyline
       style="fill-rule:evenodd"
       points="15025,27820 15025,28805 15615,28805 15615,27820 15025,27820 "
       id="polyline194" />
    <polyline
       style="fill-rule:evenodd"
       points="14025,27820 14025,28805 14615,28805 14615,27820 14025,27820 "
       id="polyline196" />
    <polyline
       style="fill-rule:evenodd"
       points="13025,27820 13025,28805 13615,28805 13615,27820 13025,27820 "
       id="polyline198" />
    <polyline
       style="fill-rule:evenodd"
       points="12025,27820 12025,28805 12615,28805 12615,27820 12025,27820 "
       id="polyline200" />
    <polyline
       style="fill-rule:evenodd"
       points="19675,15757 20265,15757 20265,15167 19675,15167 19675,15757 "
       id="polyline202" />
    <polyline
       style="fill-rule:evenodd"
       points="19675,14458 20265,14458 20265,13868 19675,13868 19675,14458 "
       id="polyline204" />
    <polyline
       style="fill-rule:evenodd"
       points="20305,12114 19635,12114 19635,12469 20305,12469 20305,12114 "
       id="polyline206" />
    <polyline
       style="fill-rule:evenodd"
       points="20305,13256 19635,13256 19635,13611 20305,13611 20305,13256 "
       id="polyline208" />
  </g>
  <g
     style="fill:#000000; fill-opacity:1.0;  stroke:#000000; stroke-width:236.22; stroke-opacity:1;  stroke-linecap:round; stroke-linejoin:round;"
     id="g212" />
  <g
     style="fill:#000000;fill-opacity:0;stroke:#000000;stroke-width:236.22000122;stroke-linecap:round;stroke-linejoin:round;stroke-opacity:1"
     id="g704"
     transform="translate(-3333.3329,-1249.9999)">
    <path
       d="m 16870,8962 v 600"
       id="path214"
       inkscape:connector-curvature="0" />
    <path
       d="m 18320,10012 v 3750"
       id="path216"
       inkscape:connector-curvature="0" />
    <path
       d="m 18070,9762 250,250"
       id="path218"
       inkscape:connector-curvature="0" />
    <path
       d="m 17070,9762 h 1000"
       id="path220"
       inkscape:connector-curvature="0" />
    <path
       d="m 16870,9562 200,200"
       id="path222"
       inkscape:connector-curvature="0" />
    <path
       d="M 15645,5807 V 7237"
       id="path224"
       inkscape:connector-curvature="0" />
    <path
       d="M 16870,7762 V 8962"
       id="path226"
       inkscape:connector-curvature="0" />
    <path
       d="m 16570,7462 300,300"
       id="path228"
       inkscape:connector-curvature="0" />
    <path
       d="m 15870,7462 h 700"
       id="path230"
       inkscape:connector-curvature="0" />
    <path
       d="m 15645,7237 225,225"
       id="path232"
       inkscape:connector-curvature="0" />
    <path
       d="m 12325,13827 190,190"
       id="path234"
       inkscape:connector-curvature="0" />
    <path
       d="m 12325,13447 v 380"
       id="path236"
       inkscape:connector-curvature="0" />
    <path
       d="m 18065,14017 255,-255"
       id="path238"
       inkscape:connector-curvature="0" />
    <path
       d="m 12515,14017 h 5550"
       id="path240"
       inkscape:connector-curvature="0" />
    <path
       d="M 11645,5807 V 7619"
       id="path242"
       inkscape:connector-curvature="0" />
    <path
       d="m 11645,7619 -459,459"
       id="path244"
       inkscape:connector-curvature="0" />
    <path
       d="m 10325,13447 v -585"
       id="path246"
       inkscape:connector-curvature="0" />
    <path
       d="m 10078,9187 413,-414"
       id="path248"
       inkscape:connector-curvature="0" />
    <path
       d="M 10078,12615 V 9187"
       id="path250"
       inkscape:connector-curvature="0" />
    <path
       d="m 10325,12862 -247,-247"
       id="path252"
       inkscape:connector-curvature="0" />
    <path
       d="m 11186,8078 -695,695"
       id="path254"
       inkscape:connector-curvature="0" />
    <path
       d="m 14325,13447 v -295"
       id="path256"
       inkscape:connector-curvature="0" />
    <path
       d="m 14325,13152 -680,-680"
       id="path258"
       inkscape:connector-curvature="0" />
    <path
       d="m 13645,11318 v 1154"
       id="path260"
       inkscape:connector-curvature="0" />
    <path
       d="m 14325,13447 v -70"
       id="path262"
       inkscape:connector-curvature="0" />
    <path
       d="m 16325,13447 v -305"
       id="path264"
       inkscape:connector-curvature="0" />
    <path
       d="m 16325,13142 -680,-680"
       id="path266"
       inkscape:connector-curvature="0" />
    <path
       d="m 15645,11318 v 1144"
       id="path268"
       inkscape:connector-curvature="0" />
    <path
       d="m 17325,13447 v -315"
       id="path270"
       inkscape:connector-curvature="0" />
    <path
       d="m 17325,13132 -680,-680"
       id="path272"
       inkscape:connector-curvature="0" />
    <path
       d="m 16645,11318 v 1134"
       id="path274"
       inkscape:connector-curvature="0" />
    <path
       d="m 16645,11318 v 956"
       id="path276"
       inkscape:connector-curvature="0" />
    <path
       d="m 10550,12062 v 310"
       id="path278"
       inkscape:connector-curvature="0" />
    <path
       d="m 10550,12372 775,775"
       id="path280"
       inkscape:connector-curvature="0" />
    <path
       d="M 14645,5807 V 7387"
       id="path282"
       inkscape:connector-curvature="0" />
    <path
       d="m 14020,8012 h -380"
       id="path284"
       inkscape:connector-curvature="0" />
    <path
       d="m 14645,7387 -625,625"
       id="path286"
       inkscape:connector-curvature="0" />
    <path
       d="M 11920,8012 10550,9382"
       id="path288"
       inkscape:connector-curvature="0" />
    <path
       d="M 13640,8012 H 11920"
       id="path290"
       inkscape:connector-curvature="0" />
    <path
       d="M 10550,12062 V 9382"
       id="path292"
       inkscape:connector-curvature="0" />
    <path
       d="m 11325,13447 v -300"
       id="path294"
       inkscape:connector-curvature="0" />
    <path
       d="m 13325,13447 v -285"
       id="path296"
       inkscape:connector-curvature="0" />
    <path
       d="m 13325,13162 -680,-680"
       id="path298"
       inkscape:connector-curvature="0" />
    <path
       d="m 12645,11318 v 1164"
       id="path300"
       inkscape:connector-curvature="0" />
    <path
       d="m 15325,13447 v -315"
       id="path302"
       inkscape:connector-curvature="0" />
    <path
       d="m 15325,13132 -680,-680"
       id="path304"
       inkscape:connector-curvature="0" />
    <path
       d="m 14645,11318 v 1134"
       id="path306"
       inkscape:connector-curvature="0" />
    <path
       d="m 15325,13377 v 70"
       id="path308"
       inkscape:connector-curvature="0" />
    <path
       d="M 12325,15887 V 14588"
       id="path310"
       inkscape:connector-curvature="0" />
    <path
       d="M 10325,15887 V 14588"
       id="path312"
       inkscape:connector-curvature="0" />
    <path
       d="M 14325,15887 V 14588"
       id="path314"
       inkscape:connector-curvature="0" />
    <path
       d="M 16325,15887 V 14588"
       id="path316"
       inkscape:connector-curvature="0" />
    <path
       d="M 17325,15887 V 14588"
       id="path318"
       inkscape:connector-curvature="0" />
    <path
       d="M 11325,15887 V 14588"
       id="path320"
       inkscape:connector-curvature="0" />
    <path
       d="M 13325,15887 V 14588"
       id="path322"
       inkscape:connector-curvature="0" />
    <path
       d="M 15325,15887 V 14580"
       id="path324"
       inkscape:connector-curvature="0" />
    <path
       d="m 15325,14580 v 8"
       id="path326"
       inkscape:connector-curvature="0" />
    <path
       d="m 12935,8562 h -785"
       id="path328"
       inkscape:connector-curvature="0" />
    <path
       d="m 11645,9067 v 2251"
       id="path330"
       inkscape:connector-curvature="0" />
    <path
       d="m 12150,8562 -505,505"
       id="path332"
       inkscape:connector-curvature="0" />
    <path
       d="M 16299,8562 H 12935"
       id="path334"
       inkscape:connector-curvature="0" />
    <path
       d="M 12645,5807 V 4537"
       id="path336"
       inkscape:connector-curvature="0" />
    <path
       d="m 12310,4202 h -440"
       id="path338"
       inkscape:connector-curvature="0" />
    <path
       d="m 12645,4537 -335,-335"
       id="path340"
       inkscape:connector-curvature="0" />
    <path
       d="M 9325,15887 V 12893"
       id="path342"
       inkscape:connector-curvature="0" />
    <path
       d="m 11030,4202 h 840"
       id="path344"
       inkscape:connector-curvature="0" />
    <path
       d="m 10770,4462 260,-260"
       id="path346"
       inkscape:connector-curvature="0" />
    <path
       d="M 10770,7826 V 4462"
       id="path348"
       inkscape:connector-curvature="0" />
    <path
       d="M 9605,8991 10770,7826"
       id="path350"
       inkscape:connector-curvature="0" />
    <path
       d="M 9605,12612 V 8991"
       id="path352"
       inkscape:connector-curvature="0" />
    <path
       d="m 9325,12893 280,-281"
       id="path354"
       inkscape:connector-curvature="0" />
    <path
       d="m 12270,3730 h 804"
       id="path356"
       inkscape:connector-curvature="0" />
    <path
       d="M 13645,4301 V 5807"
       id="path358"
       inkscape:connector-curvature="0" />
    <path
       d="m 13074,3730 571,571"
       id="path360"
       inkscape:connector-curvature="0" />
    <path
       d="M 13645,5807 V 4857"
       id="path362"
       inkscape:connector-curvature="0" />
    <path
       d="m 12325,17547 v 1840"
       id="path364"
       inkscape:connector-curvature="0" />
    <path
       d="m 11950,17172 375,375"
       id="path366"
       inkscape:connector-curvature="0" />
    <path
       d="m 8810,17172 h 3140"
       id="path368"
       inkscape:connector-curvature="0" />
    <path
       d="m 8530,16892 280,280"
       id="path370"
       inkscape:connector-curvature="0" />
    <path
       d="m 8530,14862 v 2030"
       id="path372"
       inkscape:connector-curvature="0" />
    <path
       d="m 8853,14540 -323,322"
       id="path374"
       inkscape:connector-curvature="0" />
    <path
       d="m 8853,12697 v 1843"
       id="path376"
       inkscape:connector-curvature="0" />
    <path
       d="m 9133,12417 -280,280"
       id="path378"
       inkscape:connector-curvature="0" />
    <path
       d="m 9133,8795 v 3622"
       id="path380"
       inkscape:connector-curvature="0" />
    <path
       d="M 10270,7658 9133,8795"
       id="path382"
       inkscape:connector-curvature="0" />
    <path
       d="M 10270,4262 V 7658"
       id="path384"
       inkscape:connector-curvature="0" />
    <path
       d="m 10803,3730 -533,532"
       id="path386"
       inkscape:connector-curvature="0" />
    <path
       d="M 12270,3730 H 10803"
       id="path388"
       inkscape:connector-curvature="0" />
    <path
       d="M 16645,5807 V 4637"
       id="path390"
       inkscape:connector-curvature="0" />
    <path
       d="m 16100,4092 h -530"
       id="path392"
       inkscape:connector-curvature="0" />
    <path
       d="m 16645,4637 -545,-545"
       id="path394"
       inkscape:connector-curvature="0" />
    <path
       d="m 11325,17967 v 1420"
       id="path396"
       inkscape:connector-curvature="0" />
    <path
       d="m 11003,17645 322,322"
       id="path398"
       inkscape:connector-curvature="0" />
    <path
       d="m 8614,17645 h 2389"
       id="path400"
       inkscape:connector-curvature="0" />
    <path
       d="m 8058,17088 556,557"
       id="path402"
       inkscape:connector-curvature="0" />
    <path
       d="m 8058,14667 v 2421"
       id="path404"
       inkscape:connector-curvature="0" />
    <path
       d="m 8380,14344 -322,323"
       id="path406"
       inkscape:connector-curvature="0" />
    <path
       d="m 8380,12501 v 1843"
       id="path408"
       inkscape:connector-curvature="0" />
    <path
       d="m 8660,12221 -280,280"
       id="path410"
       inkscape:connector-curvature="0" />
    <path
       d="m 8660,8600 v 3621"
       id="path412"
       inkscape:connector-curvature="0" />
    <path
       d="M 9775,7485 8660,8600"
       id="path414"
       inkscape:connector-curvature="0" />
    <path
       d="M 9775,4057 V 7485"
       id="path416"
       inkscape:connector-curvature="0" />
    <path
       d="m 10575,3258 -800,799"
       id="path418"
       inkscape:connector-curvature="0" />
    <path
       d="M 13270,3258 H 10575"
       id="path420"
       inkscape:connector-curvature="0" />
    <path
       d="m 14105,4092 -835,-834"
       id="path422"
       inkscape:connector-curvature="0" />
    <path
       d="M 15570,4092 H 14105"
       id="path424"
       inkscape:connector-curvature="0" />
    <path
       d="M 10323,2785 9303,3805"
       id="path426"
       inkscape:connector-curvature="0" />
    <path
       d="m 10105,18117 220,220"
       id="path428"
       inkscape:connector-curvature="0" />
    <path
       d="m 8419,18117 h 1686"
       id="path430"
       inkscape:connector-curvature="0" />
    <path
       d="m 7585,17284 834,833"
       id="path432"
       inkscape:connector-curvature="0" />
    <path
       d="m 7585,14471 v 2813"
       id="path434"
       inkscape:connector-curvature="0" />
    <path
       d="m 7908,14149 -323,322"
       id="path436"
       inkscape:connector-curvature="0" />
    <path
       d="m 7908,12206 v 1943"
       id="path438"
       inkscape:connector-curvature="0" />
    <path
       d="m 8188,11925 -280,281"
       id="path440"
       inkscape:connector-curvature="0" />
    <path
       d="m 8188,8404 v 3521"
       id="path442"
       inkscape:connector-curvature="0" />
    <path
       d="M 9303,7289 8188,8404"
       id="path444"
       inkscape:connector-curvature="0" />
    <path
       d="M 9303,3805 V 7289"
       id="path446"
       inkscape:connector-curvature="0" />
    <path
       d="M 13493,2785 H 11240"
       id="path448"
       inkscape:connector-curvature="0" />
    <path
       d="m 14328,3620 -835,-835"
       id="path450"
       inkscape:connector-curvature="0" />
    <path
       d="M 15770,3620 H 14328"
       id="path452"
       inkscape:connector-curvature="0" />
    <path
       d="M 10325,19387 V 18337"
       id="path454"
       inkscape:connector-curvature="0" />
    <path
       d="m 11240,2785 h -170"
       id="path456"
       inkscape:connector-curvature="0" />
    <path
       d="m 16528,3620 942,942"
       id="path458"
       inkscape:connector-curvature="0" />
    <path
       d="M 17470,4562 V 7162"
       id="path460"
       inkscape:connector-curvature="0" />
    <path
       d="m 15770,3620 h 758"
       id="path462"
       inkscape:connector-curvature="0" />
    <path
       d="M 17470,7162 V 8533"
       id="path464"
       inkscape:connector-curvature="0" />
    <path
       d="m 11070,2785 h -747"
       id="path466"
       inkscape:connector-curvature="0" />
    <path
       d="m 17470,8533 -29,29"
       id="path468"
       inkscape:connector-curvature="0" />
    <path
       d="m 15325,19387 v 2330"
       id="path470"
       inkscape:connector-curvature="0" />
    <path
       d="m 15325,21717 645,645"
       id="path472"
       inkscape:connector-curvature="0" />
    <path
       d="m 15970,22362 h 523"
       id="path474"
       inkscape:connector-curvature="0" />
    <path
       d="M 16311,23962 V 22545"
       id="path476"
       inkscape:connector-curvature="0" />
    <path
       d="m 16311,22545 182,-183"
       id="path478"
       inkscape:connector-curvature="0" />
    <path
       d="m 15970,22362 h 523"
       id="path480"
       inkscape:connector-curvature="0" />
    <path
       d="m 8404,25712 v 1134"
       id="path482"
       inkscape:connector-curvature="0" />
    <path
       d="m 8404,26846 466,466"
       id="path484"
       inkscape:connector-curvature="0" />
    <path
       d="m 12320,27612 v 700"
       id="path486"
       inkscape:connector-curvature="0" />
    <path
       d="m 12320,27612 -300,-300"
       id="path488"
       inkscape:connector-curvature="0" />
    <path
       d="M 12020,27312 H 8870"
       id="path490"
       inkscape:connector-curvature="0" />
    <path
       d="m 8404,25712 v -983"
       id="path492"
       inkscape:connector-curvature="0" />
    <path
       d="m 8404,24729 276,-276"
       id="path494"
       inkscape:connector-curvature="0" />
    <path
       d="m 8680,24453 v -841"
       id="path496"
       inkscape:connector-curvature="0" />
    <path
       d="M 8680,23612 H 8120"
       id="path498"
       inkscape:connector-curvature="0" />
    <path
       d="m 8120,23612 -350,-350"
       id="path500"
       inkscape:connector-curvature="0" />
    <path
       d="M 7770,23262 V 19762"
       id="path502"
       inkscape:connector-curvature="0" />
    <path
       d="m 7770,19762 375,-375"
       id="path504"
       inkscape:connector-curvature="0" />
    <path
       d="M 8145,19387 H 9325"
       id="path506"
       inkscape:connector-curvature="0" />
    <path
       d="m 14720,23962 v 450"
       id="path508"
       inkscape:connector-curvature="0" />
    <path
       d="m 14720,24412 -250,250"
       id="path510"
       inkscape:connector-curvature="0" />
    <path
       d="M 14470,24662 H 12720"
       id="path512"
       inkscape:connector-curvature="0" />
    <path
       d="m 12720,24662 -900,-900"
       id="path514"
       inkscape:connector-curvature="0" />
    <path
       d="M 11820,23762 V 21462"
       id="path516"
       inkscape:connector-curvature="0" />
    <path
       d="m 11820,21462 -700,-700"
       id="path518"
       inkscape:connector-curvature="0" />
    <path
       d="M 11120,20762 H 9770"
       id="path520"
       inkscape:connector-curvature="0" />
    <path
       d="m 9770,20762 -445,-445"
       id="path522"
       inkscape:connector-curvature="0" />
    <path
       d="m 9325,20317 v -930"
       id="path524"
       inkscape:connector-curvature="0" />
    <path
       d="m 15130,23962 h -410"
       id="path526"
       inkscape:connector-curvature="0" />
    <path
       d="m 14720,23962 h -409"
       id="path528"
       inkscape:connector-curvature="0" />
    <path
       d="m 14325,19387 v 2320"
       id="path530"
       inkscape:connector-curvature="0" />
    <path
       d="m 14325,21707 -655,655"
       id="path532"
       inkscape:connector-curvature="0" />
    <path
       d="m 13670,22362 h -523"
       id="path534"
       inkscape:connector-curvature="0" />
    <path
       d="M 13130,23962 V 22380"
       id="path536"
       inkscape:connector-curvature="0" />
    <path
       d="m 13130,22380 17,-18"
       id="path538"
       inkscape:connector-curvature="0" />
    <path
       d="m 13670,22362 h -523"
       id="path540"
       inkscape:connector-curvature="0" />
    <path
       d="m 11570,25912 h 1250"
       id="path542"
       inkscape:connector-curvature="0" />
    <path
       d="m 11220,25562 350,350"
       id="path544"
       inkscape:connector-curvature="0" />
    <path
       d="m 11220,23912 v 1650"
       id="path546"
       inkscape:connector-curvature="0" />
    <path
       d="m 19120,20312 v 4700"
       id="path548"
       inkscape:connector-curvature="0" />
    <path
       d="M 18220,25912 H 12820"
       id="path550"
       inkscape:connector-curvature="0" />
    <path
       d="m 19120,25012 -900,900"
       id="path552"
       inkscape:connector-curvature="0" />
    <path
       d="m 19120,19212 v 1100"
       id="path554"
       inkscape:connector-curvature="0" />
    <path
       d="m 19420,18912 -300,300"
       id="path556"
       inkscape:connector-curvature="0" />
    <path
       d="m 9861,23612 h 1059"
       id="path558"
       inkscape:connector-curvature="0" />
    <path
       d="m 10920,23612 300,300"
       id="path560"
       inkscape:connector-curvature="0" />
    <path
       d="m 10136,25712 v 894"
       id="path562"
       inkscape:connector-curvature="0" />
    <path
       d="m 12698,26840 622,622"
       id="path564"
       inkscape:connector-curvature="0" />
    <path
       d="m 10370,26840 h 2328"
       id="path566"
       inkscape:connector-curvature="0" />
    <path
       d="m 10136,26606 234,234"
       id="path568"
       inkscape:connector-curvature="0" />
    <path
       d="m 20170,14812 h 800"
       id="path570"
       inkscape:connector-curvature="0" />
    <path
       d="m 20970,14812 h -50"
       id="path572"
       inkscape:connector-curvature="0" />
    <path
       d="m 20920,14812 h 50"
       id="path574"
       inkscape:connector-curvature="0" />
    <path
       d="m 19970,12292 h 629"
       id="path576"
       inkscape:connector-curvature="0" />
    <path
       d="M 20970,14812 V 13462"
       id="path578"
       inkscape:connector-curvature="0" />
    <path
       d="m 20599,12292 371,370"
       id="path580"
       inkscape:connector-curvature="0" />
    <path
       d="m 20970,12662 v 800"
       id="path582"
       inkscape:connector-curvature="0" />
    <path
       d="m 20970,15312 v -500"
       id="path584"
       inkscape:connector-curvature="0" />
    <path
       d="m 20970,15312 v 900"
       id="path586"
       inkscape:connector-curvature="0" />
    <path
       d="m 20970,18562 -350,350"
       id="path588"
       inkscape:connector-curvature="0" />
    <path
       d="M 20620,18912 H 19420"
       id="path590"
       inkscape:connector-curvature="0" />
    <path
       d="M 20970,18562 V 16212"
       id="path592"
       inkscape:connector-curvature="0" />
    <path
       d="m 18325,15887 v -830"
       id="path594"
       inkscape:connector-curvature="0" />
    <path
       d="m 18570,14812 h 1600"
       id="path596"
       inkscape:connector-curvature="0" />
    <path
       d="m 18325,15057 245,-245"
       id="path598"
       inkscape:connector-curvature="0" />
    <path
       d="m 13320,28312 v -850"
       id="path600"
       inkscape:connector-curvature="0" />
    <path
       d="m 10136,25712 v -983"
       id="path602"
       inkscape:connector-curvature="0" />
    <path
       d="m 10136,24729 -275,-276"
       id="path604"
       inkscape:connector-curvature="0" />
    <path
       d="m 9861,24453 v -841"
       id="path606"
       inkscape:connector-curvature="0" />
    <path
       d="M 19670,17092 H 18599"
       id="path608"
       inkscape:connector-curvature="0" />
    <path
       d="m 18325,16817 v -930"
       id="path610"
       inkscape:connector-curvature="0" />
    <path
       d="m 18599,17092 -274,-275"
       id="path612"
       inkscape:connector-curvature="0" />
    <path
       d="M 19670,18233 H 18554"
       id="path614"
       inkscape:connector-curvature="0" />
    <path
       d="m 18325,18462 v 925"
       id="path616"
       inkscape:connector-curvature="0" />
    <path
       d="m 18554,18233 -229,229"
       id="path618"
       inkscape:connector-curvature="0" />
    <path
       d="m 18549,21412 v -670"
       id="path620"
       inkscape:connector-curvature="0" />
    <path
       d="m 18549,20742 -329,-330"
       id="path622"
       inkscape:connector-curvature="0" />
    <path
       d="m 17325,19387 v 880"
       id="path624"
       inkscape:connector-curvature="0" />
    <path
       d="m 17470,20412 h 750"
       id="path626"
       inkscape:connector-curvature="0" />
    <path
       d="m 17325,20267 145,145"
       id="path628"
       inkscape:connector-curvature="0" />
    <path
       d="m 16325,19387 v 830"
       id="path630"
       inkscape:connector-curvature="0" />
    <path
       d="m 17970,21112 v 300"
       id="path632"
       inkscape:connector-curvature="0" />
    <path
       d="m 17743,20885 227,227"
       id="path634"
       inkscape:connector-curvature="0" />
    <path
       d="m 16993,20885 h 750"
       id="path636"
       inkscape:connector-curvature="0" />
    <path
       d="m 16325,20217 668,668"
       id="path638"
       inkscape:connector-curvature="0" />
    <path
       d="m 18170,22612 h 379"
       id="path640"
       inkscape:connector-curvature="0" />
    <path
       d="m 17970,22412 200,200"
       id="path642"
       inkscape:connector-curvature="0" />
    <path
       d="m 17970,21412 v 1000"
       id="path644"
       inkscape:connector-curvature="0" />
    <path
       d="m 20470,17012 v 350"
       id="path646"
       inkscape:connector-curvature="0" />
    <path
       d="m 20470,17362 -300,300"
       id="path648"
       inkscape:connector-curvature="0" />
    <path
       d="m 19970,15462 v 550"
       id="path650"
       inkscape:connector-curvature="0" />
    <path
       d="m 20470,16512 v 500"
       id="path652"
       inkscape:connector-curvature="0" />
    <path
       d="m 19970,16012 500,500"
       id="path654"
       inkscape:connector-curvature="0" />
    <path
       d="m 13325,18107 445,-445"
       id="path656"
       inkscape:connector-curvature="0" />
    <path
       d="m 13770,17662 h 6400"
       id="path658"
       inkscape:connector-curvature="0" />
    <path
       d="M 13325,19387 V 18107"
       id="path660"
       inkscape:connector-curvature="0" />
    <path
       d="m 19970,13433 v 730"
       id="path662"
       inkscape:connector-curvature="0" />
    <path
       d="m 15320,27511 v 801"
       id="path664"
       inkscape:connector-curvature="0" />
    <path
       d="m 15320,27511 v -254"
       id="path666"
       inkscape:connector-curvature="0" />
    <path
       d="m 18612,26857 226,-226"
       id="path668"
       inkscape:connector-curvature="0" />
    <path
       d="m 15720,26857 h 2892"
       id="path670"
       inkscape:connector-curvature="0" />
    <path
       d="m 15320,27257 400,-400"
       id="path672"
       inkscape:connector-curvature="0" />
    <path
       d="m 19691,21412 h 379"
       id="path674"
       inkscape:connector-curvature="0" />
    <path
       d="m 19538,25931 -700,700"
       id="path676"
       inkscape:connector-curvature="0" />
    <path
       d="m 20070,21412 200,200"
       id="path678"
       inkscape:connector-curvature="0" />
    <path
       d="m 20270,21612 v 3587"
       id="path680"
       inkscape:connector-curvature="0" />
    <path
       d="m 20270,25199 -732,732"
       id="path682"
       inkscape:connector-curvature="0" />
    <path
       d="m 19691,21412 h 29"
       id="path684"
       inkscape:connector-curvature="0" />
    <path
       d="m 14320,27112 v 1200"
       id="path686"
       inkscape:connector-curvature="0" />
    <path
       d="m 18416,26385 213,-213"
       id="path688"
       inkscape:connector-curvature="0" />
    <path
       d="m 15048,26385 h 3368"
       id="path690"
       inkscape:connector-curvature="0" />
    <path
       d="m 14320,27112 728,-727"
       id="path692"
       inkscape:connector-curvature="0" />
    <path
       d="m 19691,25062 v 48"
       id="path694"
       inkscape:connector-curvature="0" />
    <path
       d="m 19054,25747 -425,425"
       id="path696"
       inkscape:connector-curvature="0" />
    <path
       d="m 19691,22612 v 2450"
       id="path698"
       inkscape:connector-curvature="0" />
    <path
       d="m 19691,25110 -637,637"
       id="path700"
       inkscape:connector-curvature="0" />
    <path
       d="m 18629,26172 -50,50"
       id="path702"
       inkscape:connector-curvature="0" />
  </g>
  <g
     style="fill:#FFFFFF; fill-opacity:0.0;  stroke:#FFFFFF; stroke-width:236.22; stroke-opacity:1;  stroke-linecap:round; stroke-linejoin:round;"
     id="g706" />
  <g
     style="fill:#000000; fill-opacity:0.0;  stroke:#000000; stroke-width:236.22; stroke-opacity:1;  stroke-linecap:round; stroke-linejoin:round;"
     id="g708" />
</svg>
